<?xml version="1.0" encoding="UTF-8"?>
<svg width="20px" height="16px" viewBox="0 0 20 16" version="1.1" xmlns="http://www.w3.org/2000/svg" xmlns:xlink="http://www.w3.org/1999/xlink">
    <!-- Generator: Sketch 55.1 (78136) - https://sketchapp.com -->
    <title>Group 14</title>
    <desc>Created with Sketch.</desc>
    <g id="People-View-V2" stroke="none" stroke-width="1" fill="none" fill-rule="evenodd">
        <g id="Seleccion-multiple" transform="translate(-428.000000, -141.000000)">
            <g id="Group-14" transform="translate(428.000000, 141.000000)">
                <g id="Group-11" transform="translate(4.266667, 0.000000)" fill="#777777">
                    <path d="M7.83216783,6.71328671 C9.68951049,6.71328671 11.1776224,5.21398601 11.1776224,3.35664336 C11.1776224,1.4993007 9.68951049,2.08721929e-14 7.83216783,2.08721929e-14 C5.97482517,2.08721929e-14 4.47552448,1.4993007 4.47552448,3.35664336 C4.47552448,5.21398601 5.97482517,6.71328671 7.83216783,6.71328671 Z" id="Path"></path>
                    <path d="M7.83216783,8.95104895 C5.22517483,8.95104895 1.22568622e-13,10.2601399 1.22568622e-13,12.8671329 L1.22568622e-13,15.6643357 L15.6643357,15.6643357 L15.6643357,12.8671329 C15.6643357,10.2601399 10.4391608,8.95104895 7.83216783,8.95104895 Z" id="Path"></path>
                </g>
                <path d="M0,5.86666667 L6.684375,5.86666667" id="Path-4" stroke="#777777" stroke-width="2"></path>
            </g>
        </g>
    </g>
</svg>