<?xml version="1.0" encoding="UTF-8"?>
<svg width="21px" height="14px" viewBox="0 0 21 14" version="1.1" xmlns="http://www.w3.org/2000/svg" xmlns:xlink="http://www.w3.org/1999/xlink">
    <!-- Generator: Sketch 55.1 (78136) - https://sketchapp.com -->
    <title>tag-outline</title>
    <desc>Created with Sketch.</desc>
    <g id="People-View-V2" stroke="none" stroke-width="1" fill="none" fill-rule="evenodd">
        <g id="Hover-Fila" transform="translate(-746.000000, -87.000000)" fill="#777777" fill-rule="nonzero">
            <g id="new-label" transform="translate(746.000000, 81.000000)">
                <g id="tag-outline">
                    <path d="M8.52221394,6.99598444 C8.52221394,6.22245544 7.89514478,5.59538628 7.12161577,5.59538628 C6.34808677,5.59538628 5.72101761,6.22245544 5.72101761,6.99598444 C5.72101761,7.76951345 6.34808677,8.39658261 7.12161577,8.39658261 C7.89514478,8.39658261 8.52221394,7.76951345 8.52221394,6.99598444 Z M21.8535534,13.3531208 C21.8535534,13.8666735 21.6481323,14.3335396 21.3026514,14.6696831 L14.7953144,21.1770201 C14.4591709,21.5131637 13.9923048,21.7279221 13.4787522,21.7279221 C12.9651995,21.7279221 12.4983335,21.5131637 12.1528526,21.1770201 L4.41884922,13.4336794 C4.07336834,13.0975359 3.86794727,12.6306698 3.86794727,12.1171172 L3.85355339,5.59538628 C3.85355339,4.55894364 4.68457497,3.72792206 5.72101761,3.72792206 L12.2427485,3.74231595 C12.7563012,3.74231595 13.2231672,3.94773701 13.5593108,4.28388057 L21.3026514,12.0272212 C21.638795,12.3633648 21.8535534,12.8302309 21.8535534,13.3531208 Z" id="Shape" transform="translate(12.853553, 12.727922) rotate(-45.000000) translate(-12.853553, -12.727922) "></path>
                </g>
            </g>
        </g>
    </g>
</svg>